<svg id="Capa_1" enable-background="new 0 0 511.838 511.838" height="512" viewBox="0 0 511.838 511.838" width="512" xmlns="http://www.w3.org/2000/svg"><g><path d="m448.125 363.149c8.284-8.219 15.864-17.721 22.676-28.458 22.01-34.697 36.188-83.276 39.92-136.79 1.624-23.27 1.202-46.593-1.253-69.322-.092-.849-.379-3.812-1.223-13.11-.5-5.496-3.323-10.54-7.747-13.84-4.421-3.297-10.052-4.563-15.457-3.479-15.227 3.06-30.271 6.202-45.232 10.125-6.203-14.94-13.439-29.364-21.612-42.977-.766-1.275-4.34-7.464-5.516-9.498-2.482-4.297-6.689-7.348-11.544-8.372-4.856-1.024-9.929.068-13.929 2.994-17.862 13.062-36.691 27.216-53.314 43.968-2.459 2.478-4.857 4.966-7.197 7.464-13.407-20.213-28.369-39.264-44.574-56.668-.67-.719-2.942-3.214-9.966-11.021-3.975-4.417-9.66-6.948-15.627-6.948-5.945.007-11.629 2.55-15.595 6.977-19.58 21.864-38.531 43.591-55.059 68.453-2.576-2.764-5.21-5.518-7.928-8.257-16.625-16.753-35.454-30.907-53.315-43.968-4.001-2.926-9.076-4.017-13.929-2.994-4.856 1.024-9.064 4.075-11.545 8.372-2.562 4.434-5.167 8.844-7.744 13.268-2.084 3.578-.874 8.168 2.704 10.253 3.577 2.083 8.168.874 10.253-2.704 2.587-4.438 5.201-8.867 7.772-13.317.487-.843 1.245-1.113 1.653-1.199.408-.085 1.204-.145 1.983.426 18.098 13.234 35.656 26.438 51.522 42.426 3.543 3.57 6.95 7.162 10.232 10.77-5.854 9.523-11.243 19.026-16.16 28.492-16.716-9.376-35.027-17.788-54.836-25.156-6.656-2.476-13.313-4.687-19.98-6.699.79-1.875 1.592-3.743 2.412-5.589 1.682-3.784-.022-8.215-3.806-9.897-3.781-1.681-8.214.022-9.897 3.806-1.113 2.503-2.193 5.04-3.251 7.592-14.957-3.92-29.996-7.062-45.219-10.121-5.404-1.087-11.038.182-15.457 3.479-4.423 3.299-7.247 8.344-7.747 13.84-.679 7.468-1.09 11.878-1.223 13.109-2.454 22.726-2.876 46.05-1.253 69.323 3.732 53.514 17.91 102.093 39.92 136.79 6.812 10.739 14.393 20.241 22.678 28.46-31.773 9.871-63.715 25.611-63.715 49.009 0 15.325 13.572 28.953 40.339 40.503 5.234 2.26 11.134 2.645 16.614 1.085h.001l33.398-9.51c4.221-1.201 8.754.58 11.028 4.331l9.241 15.245c3.8 6.267 10.113 10.504 17.322 11.625 38.607 6.006 82.86 9.181 127.977 9.181 66.977 0 130.035-6.844 177.557-19.271 35.748-9.348 78.362-26.164 78.362-53.189-.001-23.397-31.941-39.141-63.714-49.012zm-103.589-258.197c15.865-15.988 33.425-29.191 51.522-42.426.518-.379 1.045-.48 1.46-.48.209 0 .389.026.525.055.408.086 1.167.356 1.654 1.199 3.328 5.764 5.07 8.761 5.645 9.718 7.491 12.479 14.166 25.675 19.932 39.344-6.664 2.011-13.319 4.221-19.973 6.697-19.474 7.244-37.496 15.5-53.983 24.685-4.955-9.646-10.376-19.269-16.261-28.834 3.053-3.335 6.202-6.656 9.479-9.958zm-148.777 9.962c16.558-25.69 36.101-48.109 56.346-70.715 1.145-1.279 2.723-1.984 4.449-1.986 1.721 0 3.304.704 4.455 1.983 5.696 6.33 9.106 10.1 10.137 11.208 16.92 18.172 32.465 38.194 46.204 59.51 16.256 25.221 29.712 51.98 38.911 77.385 1.41 3.894 5.716 5.908 9.603 4.497 3.893-1.41 5.906-5.709 4.497-9.603-3.61-9.968-7.765-19.967-12.429-29.959 16.002-8.969 33.557-17.039 52.597-24.121 25.354-9.43 51.111-14.965 77.467-20.261 2.52-.509 5.083 1.408 5.316 3.975.696 7.654 1.104 12.024 1.248 13.361 2.36 21.851 2.765 44.282 1.204 66.669-3.562 51.073-16.925 97.17-37.625 129.801-25.847 40.745-62.349 60.76-108.553 59.509-3.717-.101-7.551-.568-11.44-1.369 43.485-39.457 58.179-95.449 42.453-163.28-.935-4.034-4.957-6.548-8.998-5.611-4.033.935-6.546 4.963-5.611 8.997 7.534 32.494 7.651 62.069.349 87.902-8.275 29.268-26.235 53.83-53.386 73.005-14.393 10.166-34.869 16.027-56.175 16.082-.106 0-.209 0-.315 0-21.628 0-41.615-5.708-56.307-16.084-51.61-36.454-70.472-91.234-54.548-158.419 8.621-36.379 25.495-74.221 50.151-112.476zm-142.058 211.744c-20.7-32.631-34.061-78.728-37.623-129.801-1.562-22.391-1.157-44.822 1.202-66.667.144-1.333.553-5.704 1.248-13.363.157-1.728 1.182-2.733 1.779-3.178.595-.444 1.846-1.137 3.537-.797 26.357 5.296 52.114 10.83 77.466 20.261 19.352 7.198 37.175 15.415 53.39 24.559-10.607 22.398-18.54 44.553-23.685 66.26-8.364 35.286-7.843 67.844 1.547 96.77 7.92 24.396 22.04 45.812 42.072 63.894-4.211.924-8.364 1.462-12.379 1.572-46.185 1.258-82.706-18.765-108.554-59.51zm375.982 124.185c-46.319 12.112-108.03 18.783-173.763 18.783-44.358 0-87.814-3.114-125.672-9.002-2.825-.44-5.305-2.11-6.804-4.582l-9.241-15.245c-6.701-8.934-16.595-14.214-27.958-10.98l-33.397 9.51c-2.164.615-4.497.464-6.567-.43-10.105-4.361-23.286-10.269-29.191-20.213-6.319-10.642 4.866-19.731 13.308-25.081 14.155-8.97 30.683-14.317 46.717-18.763 4.126 3.151 8.389 6.036 12.794 8.626 9.844 5.788 20.474 10.188 31.509 13.119 13.009 3.456 27.815 4.936 41.245 4.571 8.569-.233 17.415-1.966 26.186-5.008.876.641 1.76 1.278 2.654 1.909 17.202 12.15 40.259 18.832 64.961 18.832h.352c24.677-.063 47.686-6.75 64.789-18.829.751-.531 1.47-1.08 2.208-1.618 8.502 2.866 17.063 4.489 25.364 4.715 25.092.683 50.776-4.767 72.754-17.69 4.405-2.59 8.667-5.476 12.794-8.627 45.672 12.663 62.118 27.467 62.118 37.321 0 10.21-17.644 25.733-67.16 38.682z"/></g></svg>