<svg id="Capa_1" enable-background="new 0 0 511.98 511.98" height="512" viewBox="0 0 511.98 511.98" width="512" xmlns="http://www.w3.org/2000/svg"><g><g><g><path d="m413.904 157.08c4.142 0 7.5-3.358 7.5-7.5s-3.358-7.5-7.5-7.5c-11.536 0-20.922-9.386-20.922-20.922v-59.567c0-6.751 5.492-12.243 12.243-12.243s12.243 5.492 12.243 12.243c0 1.909-.744 3.705-2.094 5.055-2.929 2.929-2.929 7.678 0 10.606 2.929 2.929 7.678 2.929 10.606 0 4.184-4.183 6.487-9.745 6.487-15.661 0-15.022-12.221-27.243-27.243-27.243-15.021 0-27.243 12.221-27.243 27.243v59.567c.001 19.807 16.115 35.922 35.923 35.922z"/><path d="m346.619 157.08c4.142 0 7.5-3.358 7.5-7.5v-84.924c0-4.142-3.358-7.5-7.5-7.5s-7.5 3.358-7.5 7.5v84.924c0 4.142 3.358 7.5 7.5 7.5z"/><path d="m96.606 77.252c2.929-2.929 2.929-7.678 0-10.606-1.35-1.35-2.094-3.146-2.094-5.055 0-6.751 5.492-12.243 12.243-12.243 6.75 0 12.243 5.492 12.243 12.243v59.567c0 11.536-9.386 20.922-20.922 20.922-4.142 0-7.5 3.358-7.5 7.5s3.358 7.5 7.5 7.5c19.808 0 35.922-16.114 35.922-35.922v-59.567c0-15.022-12.221-27.243-27.243-27.243s-27.243 12.221-27.243 27.243c0 5.916 2.304 11.478 6.487 15.661 2.93 2.929 7.679 2.929 10.607 0z"/><path d="m165.362 157.08c4.142 0 7.5-3.358 7.5-7.5v-84.924c0-4.142-3.358-7.5-7.5-7.5s-7.5 3.358-7.5 7.5v84.924c0 4.142 3.358 7.5 7.5 7.5z"/><path d="m467.125 183.939c-4.263-4.774-10.378-7.512-16.778-7.512h-131.182l-.389-1.554c-1.872-7.488-5.794-14.281-11.343-19.644l-5.77-5.578c-14.609-14.173-10.598-36.811-5.358-54.085 2.417-7.969 7.125-15.132 10.061-22.977 2.252-6.018 3.395-12.349 3.395-18.819 0-29.648-24.121-53.77-53.771-53.77s-53.771 24.122-53.771 53.771c0 1.563.096 3.159.285 4.744.49 4.113 4.221 7.058 8.334 6.56 4.113-.49 7.05-4.222 6.56-8.334-.119-.999-.179-1.998-.179-2.97-.002-21.097 17.664-38.771 38.771-38.771 21.378 0 38.771 17.393 38.771 38.771 0 8.334-3.135 15.728-6.738 23.062-2.2 4.479-4.474 9.111-6.072 14.38-3.152 10.394-4.897 20.811-5.186 30.96-.002.071-.003.142-.003.213 0 16.145 4.727 28.583 14.463 38.038l5.782 5.59c3.007 2.907 5.264 6.475 6.603 10.413h-95.24c1.338-3.938 3.595-7.506 6.603-10.414l5.806-5.613c3.221-3.221 6.029-6.772 8.22-10.776 10.297-18.818 6.381-42.7-.137-62.072-1.321-3.926-5.574-6.039-9.5-4.717-3.926 1.321-6.038 5.574-4.717 9.5 3.112 9.25 5.727 22 5.583 31.88-.09 6.212-1.406 12.489-4.349 17.995-2.766 5.174-7.177 9.003-11.331 13.019-5.549 5.364-9.472 12.157-11.343 19.645l-.388 1.554h-131.184c-6.4 0-12.516 2.738-16.778 7.512s-6.293 11.16-5.571 17.519l32.994 290.566c1.292 11.376 10.9 19.956 22.35 19.956h322.727c11.45 0 21.058-8.579 22.35-19.956l32.994-290.566c.72-6.36-1.311-12.746-5.574-17.52zm-161.401 7.488h69.458v59.573h-69.458zm-84.467 0h69.467v59.573h-69.467zm-84.458 0h69.458v59.573h-69.458zm-82.611 8.339c-.244-2.149.415-4.222 1.856-5.836s3.426-2.502 5.589-2.502h60.166v59.572h-61.793zm13.717 120.799h53.894v47.086h-48.548zm53.894 176.415h-27.172c-3.814 0-7.015-2.858-7.445-6.648l-6.031-53.116h40.648zm84.458 0h-69.458v-59.764h69.458zm84.467 0h-69.467v-59.764h69.467zm84.458 0h-69.458v-59.764h69.458zm49.617-6.647c-.43 3.79-3.631 6.648-7.445 6.648h-27.172v-59.764h40.648zm7.734-68.117h-353.086l-4.493-39.565h256.036c4.142 0 7.5-3.358 7.5-7.5s-3.358-7.5-7.5-7.5h-25.267v-47.086h69.458v47.086h-9.191c-4.142 0-7.5 3.358-7.5 7.5s3.358 7.5 7.5 7.5h71.036zm-295.734-54.565v-47.086h69.458v47.086zm84.458 0v-47.086h69.467v47.086zm217.472 0h-48.548v-47.086h53.894zm7.05-62.086h-379.578l-4.492-39.565h388.563zm12.013-105.799-5.817 51.234h-61.793v-59.573h60.166c2.163 0 4.148.889 5.589 2.502 1.44 1.615 2.1 3.688 1.855 5.837z"/></g><circle cx="109.747" cy="285.783" r="7.5"/><circle cx="402.234" cy="285.783" r="7.5"/><circle cx="127.047" cy="402.434" r="7.5"/><circle cx="384.933" cy="402.434" r="7.5"/></g></g></svg>